<svg t="1677683117588" class="icon" viewBox="0 0 1000 1000" version="1.1" xmlns="http://www.w3.org/2000/svg" p-id="10445" width="200" height="200"><path d="M856.6875 417.3124999999997l-312.50000000000017-312.4999999999999c-24.406300000000005-24.406299999999995-63.968800000000016-24.406299999999977-88.375 4.263256414560601e-14l-312.4999999999999 312.50000000000017c-24.406299999999995 24.406300000000005-24.406299999999977 63.968800000000016 4.263256414560601e-14 88.375 24.406300000000005 24.406299999999995 63.968800000000016 24.406299999999977 88.375-4.263256414560601e-14l205.81249999999991-205.8125000000001 2.2737367544323206e-13 599.125c1.4210854715202004e-14 34.5313 27.968800000000027 62.499999999999986 62.50000000000003 62.49999999999998s62.499999999999986-27.968800000000027 62.49999999999998-62.50000000000003l-2.2737367544323206e-13-599.125 205.8125000000001 205.81249999999991c12.187500000000004 12.187499999999991 28.187500000000007 18.31249999999999 44.187500000000014 18.312499999999986s31.999999999999993-6.093800000000012 44.1875-18.31250000000003c24.406299999999995-24.406300000000005 24.406299999999977-63.968800000000016-4.263256414560601e-14-88.375z" p-id="10446" fill="#ffffff"></path></svg>