<svg t="1677338831830" class="icon" viewBox="0 0 1024 1024" version="1.1" xmlns="http://www.w3.org/2000/svg" p-id="6546" width="200" height="200"><path d="M885 97H141C64.9 97 3 158.9 3 235v452c0 76.1 61.9 138 138 138h68.3c2.3 0.9 11.1 6.9 20.7 25.2 9.4 18.1 13.6 36.5 13.5 46.7l-0.4 49.9c-0.1 13.9 7.3 26.7 19.4 33.5 5.8 3.2 12.2 4.9 18.6 4.9 7 0 14-1.9 20.1-5.7l205.3-127.9c34.3-17.3 72.7-26.4 111.2-26.4H885c76.1 0 138-61.9 138-138V235c0-76.1-61.9-138-138-138zM252.8 514.1c-32.3 0-58.5-26.2-58.5-58.5s26.2-58.5 58.5-58.5 58.5 26.2 58.5 58.5-26.2 58.5-58.5 58.5z m260.9 0c-32.3 0-58.5-26.2-58.5-58.5s26.2-58.5 58.5-58.5 58.5 26.2 58.5 58.5-26.2 58.5-58.5 58.5z m260.9 0c-32.3 0-58.5-26.2-58.5-58.5s26.2-58.5 58.5-58.5 58.5 26.2 58.5 58.5-26.2 58.5-58.5 58.5z" fill="#ff6900" p-id="6547"></path></svg>